<svg xmlns="http://www.w3.org/2000/svg" width="186" height="36" viewBox="0 0 186 36" fill="none"><path d="M34.9783 7.83915V32.2307C34.9783 33.4325 33.995 34.4158 32.7932 34.4158H2.74763C1.54581 34.4158 0.5625 33.4325 0.5625 32.2307V2.18513C0.5625 0.983309 1.54581 0 2.74763 0H27.1391C28.2317 0 29.2696 0.437024 30.0344 1.20182C31.3728 2.54021 32.4381 3.60546 33.7765 4.94385C34.5686 5.70865 34.9783 6.74659 34.9783 7.83915Z" fill="#19A695"></path><path d="M26.7061 34.4158H2.77888C1.57706 34.4158 0.59375 33.4325 0.59375 32.2307V2.18513C0.59375 0.983309 1.57706 0 2.77888 0H26.7061C27.9079 0 28.8912 0.983309 28.8912 2.18513V32.2307C28.8912 33.4325 27.9079 34.4158 26.7061 34.4158Z" fill="#45C4B2"></path><path d="M22.4977 12.0179H7.09257C6.49165 12.0179 6 11.5262 6 10.9253V3.27738C6 2.67647 6.49165 2.18481 7.09257 2.18481H22.4977C23.0986 2.18481 23.5903 2.67647 23.5903 3.27738V10.9253C23.5903 11.5262 23.0986 12.0179 22.4977 12.0179Z" fill="white"></path><path d="M11.0515 10.9258H8.70253C8.40208 10.9258 8.15625 10.68 8.15625 10.3795V3.82411C8.15625 3.52366 8.40208 3.27783 8.70253 3.27783H11.0515C11.352 3.27783 11.5978 3.52366 11.5978 3.82411V10.3795C11.5978 10.68 11.352 10.9258 11.0515 10.9258Z" fill="#45C4B2"></path><path d="M7.63885 30.0455C8.54396 30.0455 9.2777 29.3118 9.2777 28.4067C9.2777 27.5016 8.54396 26.7678 7.63885 26.7678C6.73374 26.7678 6 27.5016 6 28.4067C6 29.3118 6.73374 30.0455 7.63885 30.0455Z" fill="white"></path><path d="M21.9513 30.0455C22.8565 30.0455 23.5902 29.3118 23.5902 28.4067C23.5902 27.5016 22.8565 26.7678 21.9513 26.7678C21.0462 26.7678 20.3125 27.5016 20.3125 28.4067C20.3125 29.3118 21.0462 30.0455 21.9513 30.0455Z" fill="white"></path><path d="M14.7951 30.0455C15.7002 30.0455 16.4339 29.3118 16.4339 28.4067C16.4339 27.5016 15.7002 26.7678 14.7951 26.7678C13.89 26.7678 13.1562 27.5016 13.1562 28.4067C13.1562 29.3118 13.89 30.0455 14.7951 30.0455Z" fill="white"></path><path d="M41.5078 30.3187V11.0623H54.7005V14.5585H45.523V19.4477H53.4168V22.9439H45.523V30.346H41.5078V30.3187Z" fill="white"></path><path d="M56.4531 30.3188V10.7346H60.3317V30.3188H56.4531Z" fill="white"></path><path d="M70.2457 30.6193C68.8527 30.6193 67.5689 30.2915 66.4217 29.6633C65.2745 29.035 64.3732 28.161 63.6903 27.0411C63.0075 25.9212 62.6797 24.6648 62.6797 23.2444C62.6797 21.8241 63.0075 20.5403 63.6903 19.4478C64.3732 18.3552 65.2745 17.4812 66.4217 16.8256C67.5689 16.1974 68.8527 15.8696 70.2457 15.8696C71.6387 15.8696 72.9225 16.1974 74.0424 16.8256C75.1896 17.4538 76.0909 18.3279 76.7738 19.4478C77.4566 20.5403 77.7844 21.8241 77.7844 23.2444C77.7844 24.6648 77.4566 25.9212 76.7738 27.0411C76.0909 28.161 75.1896 29.035 74.0424 29.6633C72.9225 30.3188 71.6387 30.6193 70.2457 30.6193ZM70.2457 27.1504C70.9559 27.1504 71.5568 26.9865 72.1031 26.6587C72.622 26.3309 73.0317 25.8666 73.3322 25.293C73.6327 24.7194 73.7965 24.0366 73.7965 23.2718C73.7965 22.507 73.6327 21.8514 73.3322 21.2778C73.0317 20.7042 72.622 20.2399 72.1031 19.9121C71.5841 19.5844 70.9559 19.4205 70.2457 19.4205C69.5355 19.4205 68.9073 19.5844 68.3883 19.9121C67.8421 20.2399 67.4324 20.7042 67.1319 21.2778C66.8314 21.8514 66.6676 22.5343 66.6676 23.2718C66.6676 24.0366 66.8314 24.6921 67.1319 25.293C67.4324 25.8666 67.8421 26.3309 68.3883 26.6587C68.9073 26.9865 69.5355 27.1504 70.2457 27.1504Z" fill="white"></path><path d="M80.1328 35.4812V16.1974H83.7656V18.8742L83.4378 18.1094C83.9022 17.3993 84.5304 16.853 85.3498 16.4706C86.1419 16.0882 87.0706 15.897 88.1085 15.897C89.4469 15.897 90.6761 16.2247 91.7686 16.8803C92.8612 17.5358 93.7079 18.4099 94.3635 19.5298C94.9917 20.6496 95.3195 21.8788 95.3195 23.2718C95.3195 24.6375 94.9917 25.8666 94.3635 26.9865C93.7352 28.1064 92.8885 29.0078 91.7959 29.6633C90.7034 30.3188 89.4742 30.6466 88.1085 30.6466C87.1525 30.6466 86.2512 30.4827 85.4318 30.1276C84.6123 29.7726 83.9568 29.2536 83.4651 28.5707L84.0934 27.7786V35.5358H80.1328V35.4812ZM87.5623 27.1504C88.2997 27.1504 88.928 26.9865 89.4742 26.6587C90.0205 26.331 90.4576 25.8666 90.758 25.293C91.0585 24.7194 91.2223 24.0366 91.2223 23.2718C91.2223 22.507 91.0585 21.8515 90.758 21.2779C90.4576 20.7043 90.0205 20.2399 89.4742 19.9121C88.928 19.5844 88.2724 19.4205 87.5623 19.4205C86.8794 19.4205 86.2512 19.5844 85.7049 19.9121C85.1586 20.2399 84.7489 20.7043 84.4484 21.2779C84.148 21.8515 83.9841 22.5343 83.9841 23.2991C83.9841 24.0639 84.148 24.7194 84.4484 25.3203C84.7489 25.8939 85.1859 26.3583 85.7049 26.6861C86.2785 26.9865 86.8794 27.1504 87.5623 27.1504Z" fill="white"></path><path d="M97.5859 35.4812V16.1974H101.219V18.8742L100.891 18.1094C101.355 17.3993 101.984 16.853 102.803 16.4706C103.595 16.0882 104.524 15.897 105.562 15.897C106.9 15.897 108.129 16.2247 109.222 16.8803C110.314 17.5358 111.161 18.4099 111.817 19.5298C112.445 20.6496 112.773 21.8788 112.773 23.2718C112.773 24.6375 112.445 25.8666 111.817 26.9865C111.188 28.1064 110.342 29.0078 109.249 29.6633C108.157 30.3188 106.927 30.6466 105.562 30.6466C104.606 30.6466 103.704 30.4827 102.885 30.1276C102.065 29.7726 101.41 29.2536 100.918 28.5707L101.546 27.7786V35.5358H97.5859V35.4812ZM105.043 27.1504C105.78 27.1504 106.408 26.9865 106.955 26.6587C107.501 26.331 107.938 25.8666 108.238 25.293C108.539 24.7194 108.703 24.0366 108.703 23.2718C108.703 22.507 108.539 21.8515 108.238 21.2779C107.938 20.7043 107.501 20.2399 106.955 19.9121C106.408 19.5844 105.753 19.4205 105.043 19.4205C104.36 19.4205 103.732 19.5844 103.185 19.9121C102.639 20.2399 102.229 20.7043 101.929 21.2779C101.628 21.8515 101.465 22.5343 101.465 23.2991C101.465 24.0639 101.628 24.7194 101.929 25.3203C102.229 25.8939 102.666 26.3583 103.185 26.6861C103.732 26.9865 104.333 27.1504 105.043 27.1504Z" fill="white"></path><path d="M116.981 36C116.571 36 116.161 35.9727 115.779 35.8908C115.397 35.8088 115.041 35.6996 114.768 35.563V32.3946C115.014 32.4765 115.287 32.5311 115.615 32.5858C115.943 32.6404 116.243 32.6677 116.516 32.6677C117.281 32.6677 117.827 32.5038 118.155 32.1487C118.483 31.7937 118.756 31.384 118.947 30.9469L119.903 28.7618L119.849 31.9849L113.648 16.2246H117.8L121.925 27.4234H120.368L124.492 16.2246H128.644L122.58 31.6571C122.198 32.6131 121.733 33.4325 121.187 34.0881C120.641 34.7436 120.013 35.2352 119.302 35.5357C118.62 35.8362 117.855 36 116.981 36Z" fill="white"></path><path d="M136.781 30.6193C135.388 30.6193 134.159 30.2915 133.094 29.636C132.001 28.9804 131.155 28.1064 130.526 26.9592C129.898 25.8393 129.57 24.6102 129.57 23.2445C129.57 21.8788 129.898 20.6223 130.526 19.5024C131.155 18.3825 132.029 17.5085 133.121 16.853C134.214 16.1974 135.416 15.8696 136.781 15.8696C137.819 15.8696 138.721 16.0608 139.54 16.4432C140.332 16.8256 140.988 17.3719 141.452 18.0821L140.851 18.8469V10.7073H144.73V30.2915H141.097V27.6967L141.452 28.4888C140.96 29.1716 140.305 29.6906 139.485 30.0457C138.666 30.4554 137.765 30.6193 136.781 30.6193ZM137.246 27.1504C137.956 27.1504 138.584 26.9865 139.103 26.6587C139.649 26.331 140.059 25.8666 140.359 25.293C140.66 24.7194 140.824 24.0366 140.824 23.2718C140.824 22.507 140.66 21.8514 140.359 21.2505C140.059 20.6769 139.649 20.2126 139.103 19.8848C138.557 19.5571 137.956 19.3932 137.246 19.3932C136.535 19.3932 135.907 19.5571 135.334 19.8848C134.76 20.2126 134.35 20.6769 134.023 21.2505C133.722 21.8241 133.558 22.507 133.558 23.2445C133.558 24.0093 133.722 24.6648 134.023 25.2657C134.323 25.8393 134.76 26.3036 135.334 26.6314C135.907 26.9865 136.563 27.1504 137.246 27.1504Z" fill="white"></path><path d="M151.967 30.6193C150.957 30.6193 150.083 30.4554 149.318 30.1276C148.58 29.7999 148.007 29.3355 147.624 28.7073C147.215 28.1064 147.023 27.3689 147.023 26.5222C147.023 25.7301 147.215 25.0199 147.57 24.419C147.925 23.8181 148.498 23.2991 149.236 22.8894C149.973 22.4797 150.929 22.1792 152.049 22.0153L156.365 21.3052V24.1458L152.732 24.8014C152.186 24.9106 151.749 25.0745 151.476 25.3203C151.175 25.5662 151.039 25.9213 151.039 26.3856C151.039 26.8226 151.202 27.1504 151.53 27.3962C151.858 27.642 152.268 27.7513 152.759 27.7513C153.388 27.7513 153.961 27.6147 154.453 27.3416C154.945 27.0684 155.3 26.6861 155.573 26.2217C155.846 25.7574 155.982 25.2384 155.982 24.6648V21.0047C155.982 20.4584 155.764 20.0214 155.354 19.6663C154.945 19.3112 154.371 19.12 153.633 19.12C152.951 19.12 152.322 19.3112 151.803 19.6936C151.284 20.076 150.902 20.5677 150.656 21.1959L147.542 19.721C147.816 18.9288 148.253 18.246 148.853 17.6724C149.454 17.0988 150.192 16.6618 151.039 16.3613C151.885 16.0609 152.814 15.897 153.797 15.897C154.999 15.897 156.037 16.1155 156.966 16.5525C157.867 16.9895 158.577 17.5904 159.096 18.3552C159.615 19.12 159.861 20.0214 159.861 21.032V30.3461H156.228V28.0518L157.102 27.8879C156.693 28.5161 156.228 29.0351 155.737 29.4175C155.245 29.8272 154.671 30.1276 154.043 30.3188C153.415 30.5373 152.732 30.6193 151.967 30.6193Z" fill="white"></path><path d="M169.281 30.4825C167.587 30.4825 166.249 30.0181 165.32 29.0895C164.391 28.1608 163.9 26.877 163.9 25.2109V19.5568H161.523V16.1972H161.66C162.397 16.1972 162.944 16.006 163.326 15.6509C163.709 15.2958 163.9 14.7495 163.9 14.0121V12.9741H167.778V16.1699H171.083V19.5295H167.778V24.9377C167.778 25.4294 167.86 25.8118 168.024 26.1395C168.188 26.4673 168.461 26.6858 168.816 26.8497C169.171 27.0136 169.636 27.0955 170.155 27.0955C170.264 27.0955 170.401 27.0955 170.564 27.0682C170.728 27.0409 170.892 27.0409 171.056 27.0136V30.2913C170.81 30.3186 170.51 30.3732 170.182 30.4005C169.882 30.4552 169.554 30.4825 169.281 30.4825Z" fill="white"></path><path d="M177.78 30.6193C176.769 30.6193 175.895 30.4554 175.13 30.1276C174.393 29.7999 173.819 29.3355 173.437 28.7073C173.027 28.1064 172.836 27.3689 172.836 26.5222C172.836 25.7301 173.027 25.0199 173.382 24.419C173.737 23.8181 174.311 23.2991 175.048 22.8894C175.786 22.4797 176.742 22.1792 177.862 22.0153L182.177 21.3052V24.1458L178.545 24.8014C177.998 24.9106 177.561 25.0745 177.288 25.3203C176.988 25.5662 176.851 25.9213 176.851 26.3856C176.851 26.8226 177.015 27.1504 177.343 27.3962C177.671 27.642 178.08 27.7513 178.572 27.7513C179.2 27.7513 179.774 27.6147 180.265 27.3416C180.757 27.0684 181.112 26.6861 181.385 26.2217C181.658 25.7574 181.795 25.2384 181.795 24.6648V21.0047C181.795 20.4584 181.576 20.0214 181.167 19.6663C180.757 19.3112 180.183 19.12 179.446 19.12C178.763 19.12 178.135 19.3112 177.616 19.6936C177.097 20.076 176.715 20.5677 176.469 21.1959L173.355 19.721C173.628 18.9288 174.065 18.246 174.666 17.6724C175.267 17.0988 176.004 16.6618 176.851 16.3613C177.698 16.0609 178.627 15.897 179.61 15.897C180.812 15.897 181.85 16.1155 182.778 16.5525C183.68 16.9895 184.39 17.5904 184.909 18.3552C185.428 19.12 185.674 20.0214 185.674 21.032V30.3461H182.041V28.0518L182.915 27.8879C182.505 28.5161 182.041 29.0351 181.549 29.4175C181.057 29.8272 180.484 30.1276 179.856 30.3188C179.227 30.5373 178.545 30.6193 177.78 30.6193Z" fill="white"></path></svg>