<svg xmlns="http://www.w3.org/2000/svg" width="138" height="27" viewBox="0 0 138 27" fill="none"><path d="M25.5317 5.87614V24.1597C25.5317 25.0606 24.8022 25.7977 23.9107 25.7977H1.62106C0.729476 25.7977 0 25.0606 0 24.1597V1.63795C0 0.737076 0.729476 0 1.62106 0H19.7162C20.5267 0 21.2967 0.327588 21.8641 0.90087C22.857 1.90411 23.6472 2.70261 24.6401 3.70585C25.2278 4.27914 25.5317 5.05716 25.5317 5.87614Z" fill="#19A695"></path><path d="M19.3912 25.7977H1.64059C0.749009 25.7977 0.0195312 25.0606 0.0195312 24.1597V1.63795C0.0195312 0.737076 0.749009 0 1.64059 0H19.3912C20.2828 0 21.0123 0.737076 21.0123 1.63795V24.1597C21.0123 25.0606 20.2828 25.7977 19.3912 25.7977Z" fill="#45C4B2"></path><path d="M16.2703 9.0087H4.84178C4.39599 9.0087 4.03125 8.64017 4.03125 8.18973V2.45691C4.03125 2.00648 4.39599 1.63794 4.84178 1.63794H16.2703C16.7161 1.63794 17.0808 2.00648 17.0808 2.45691V8.18973C17.0808 8.64017 16.7161 9.0087 16.2703 9.0087Z" fill="white"></path><path d="M7.78072 8.18976H6.03808C5.81518 8.18976 5.63281 8.00549 5.63281 7.78027V2.86643C5.63281 2.64121 5.81518 2.45694 6.03808 2.45694H7.78072C8.00362 2.45694 8.18599 2.64121 8.18599 2.86643V7.78027C8.18599 8.00549 8.00362 8.18976 7.78072 8.18976Z" fill="#45C4B2"></path><path d="M5.24705 22.5218C5.91851 22.5218 6.46284 21.9718 6.46284 21.2933C6.46284 20.6149 5.91851 20.0649 5.24705 20.0649C4.57558 20.0649 4.03125 20.6149 4.03125 21.2933C4.03125 21.9718 4.57558 22.5218 5.24705 22.5218Z" fill="white"></path><path d="M15.8642 22.5218C16.5357 22.5218 17.08 21.9718 17.08 21.2933C17.08 20.6149 16.5357 20.0649 15.8642 20.0649C15.1928 20.0649 14.6484 20.6149 14.6484 21.2933C14.6484 21.9718 15.1928 22.5218 15.8642 22.5218Z" fill="white"></path><path d="M10.5556 22.5218C11.2271 22.5218 11.7714 21.9718 11.7714 21.2933C11.7714 20.6149 11.2271 20.0649 10.5556 20.0649C9.88417 20.0649 9.33984 20.6149 9.33984 21.2933C9.33984 21.9718 9.88417 22.5218 10.5556 22.5218Z" fill="white"></path><path d="M30.3789 22.7266V8.29221H40.1661V10.9129H33.3576V14.5778H39.2137V17.1985H33.3576V22.7471H30.3789V22.7266Z" fill="#333333"></path><path d="M41.4648 22.7266V8.04648H44.3422V22.7266H41.4648Z" fill="#333333"></path><path d="M51.695 22.9518C50.6615 22.9518 49.7092 22.7061 48.8581 22.2352C48.007 21.7643 47.3384 21.1091 46.8318 20.2697C46.3252 19.4303 46.082 18.4884 46.082 17.4238C46.082 16.3591 46.3252 15.3968 46.8318 14.5778C47.3384 13.7589 48.007 13.1037 48.8581 12.6123C49.7092 12.1414 50.6615 11.8957 51.695 11.8957C52.7284 11.8957 53.6808 12.1414 54.5116 12.6123C55.3626 13.0832 56.0313 13.7384 56.5379 14.5778C57.0445 15.3968 57.2876 16.3591 57.2876 17.4238C57.2876 18.4884 57.0445 19.4303 56.5379 20.2697C56.0313 21.1091 55.3626 21.7643 54.5116 22.2352C53.6808 22.7266 52.7284 22.9518 51.695 22.9518ZM51.695 20.3516C52.2218 20.3516 52.6676 20.2287 53.0729 19.9831C53.4579 19.7374 53.7618 19.3893 53.9847 18.9593C54.2076 18.5294 54.3292 18.0175 54.3292 17.4442C54.3292 16.871 54.2076 16.3796 53.9847 15.9496C53.7618 15.5196 53.4579 15.1716 53.0729 14.9259C52.6879 14.6802 52.2218 14.5574 51.695 14.5574C51.1681 14.5574 50.7021 14.6802 50.3171 14.9259C49.9118 15.1716 49.6078 15.5196 49.3849 15.9496C49.1621 16.3796 49.0405 16.8914 49.0405 17.4442C49.0405 18.0175 49.1621 18.5089 49.3849 18.9593C49.6078 19.3893 49.9118 19.7374 50.3171 19.9831C50.7021 20.2287 51.1681 20.3516 51.695 20.3516Z" fill="#333333"></path><path d="M59.0312 26.5962V12.1413H61.7263V14.1478L61.4831 13.5745C61.8276 13.0422 62.2936 12.6327 62.9015 12.346C63.4892 12.0594 64.1781 11.9161 64.9481 11.9161C65.941 11.9161 66.8529 12.1618 67.6634 12.6532C68.4739 13.1445 69.1021 13.7997 69.5884 14.6392C70.0545 15.4786 70.2976 16.4 70.2976 17.4441C70.2976 18.4679 70.0545 19.3892 69.5884 20.2287C69.1224 21.0681 68.4942 21.7438 67.6837 22.2351C66.8731 22.7265 65.9613 22.9722 64.9481 22.9722C64.2389 22.9722 63.5702 22.8494 62.9623 22.5832C62.3544 22.317 61.8681 21.928 61.5034 21.4162L61.9694 20.8224V26.6371H59.0312V26.5962ZM64.5429 20.3515C65.09 20.3515 65.556 20.2287 65.9613 19.983C66.3665 19.7373 66.6908 19.3892 66.9137 18.9592C67.1366 18.5293 67.2581 18.0174 67.2581 17.4441C67.2581 16.8709 67.1366 16.3795 66.9137 15.9495C66.6908 15.5196 66.3665 15.1715 65.9613 14.9258C65.556 14.6801 65.0697 14.5573 64.5429 14.5573C64.0363 14.5573 63.5702 14.6801 63.165 14.9258C62.7597 15.1715 62.4557 15.5196 62.2328 15.9495C62.0099 16.3795 61.8884 16.8913 61.8884 17.4646C61.8884 18.0379 62.0099 18.5293 62.2328 18.9797C62.4557 19.4097 62.78 19.7578 63.165 20.0034C63.5905 20.2287 64.0363 20.3515 64.5429 20.3515Z" fill="#333333"></path><path d="M71.9805 26.5962V12.1413H74.6755V14.1478L74.4323 13.5745C74.7768 13.0422 75.2429 12.6327 75.8508 12.346C76.4384 12.0594 77.1273 11.9161 77.8973 11.9161C78.8902 11.9161 79.8021 12.1618 80.6126 12.6532C81.4232 13.1445 82.0513 13.7997 82.5376 14.6392C83.0037 15.4786 83.2468 16.4 83.2468 17.4441C83.2468 18.4679 83.0037 19.3892 82.5376 20.2287C82.0716 21.0681 81.4434 21.7438 80.6329 22.2351C79.8223 22.7265 78.9105 22.9722 77.8973 22.9722C77.1881 22.9722 76.5194 22.8494 75.9115 22.5832C75.3036 22.317 74.8173 21.928 74.4526 21.4162L74.9186 20.8224V26.6371H71.9805V26.5962ZM77.5123 20.3515C78.0594 20.3515 78.5255 20.2287 78.9308 19.983C79.336 19.7373 79.6602 19.3892 79.8831 18.9592C80.106 18.5293 80.2276 18.0174 80.2276 17.4441C80.2276 16.8709 80.106 16.3795 79.8831 15.9495C79.6602 15.5196 79.336 15.1715 78.9308 14.9258C78.5255 14.6801 78.0392 14.5573 77.5123 14.5573C77.0058 14.5573 76.5397 14.6801 76.1344 14.9258C75.7292 15.1715 75.4252 15.5196 75.2023 15.9495C74.9794 16.3795 74.8578 16.8913 74.8578 17.4646C74.8578 18.0379 74.9794 18.5293 75.2023 18.9797C75.4252 19.4097 75.7494 19.7578 76.1344 20.0034C76.5397 20.2287 76.9855 20.3515 77.5123 20.3515Z" fill="#333333"></path><path d="M86.3666 26.9852C86.0627 26.9852 85.7587 26.9648 85.4751 26.9033C85.1914 26.8419 84.928 26.76 84.7253 26.6576V24.2826C84.9077 24.344 85.1103 24.385 85.3535 24.4259C85.5966 24.4669 85.8195 24.4874 86.0222 24.4874C86.5895 24.4874 86.9948 24.3645 87.238 24.0983C87.4811 23.8322 87.6838 23.5251 87.8256 23.1975L88.5348 21.5595L88.4943 23.9755L83.8945 12.1618H86.9745L90.0343 20.5563H88.8793L91.939 12.1618H95.0191L90.5206 23.7298C90.2369 24.4464 89.8925 25.0606 89.4872 25.552C89.0819 26.0434 88.6159 26.4119 88.089 26.6372C87.5824 26.8624 87.0151 26.9852 86.3666 26.9852Z" fill="#333333"></path><path d="M101.057 22.9518C100.023 22.9518 99.1113 22.7061 98.321 22.2147C97.5105 21.7233 96.8823 21.0682 96.4162 20.2082C95.9502 19.3688 95.707 18.4474 95.707 17.4237C95.707 16.4 95.9502 15.4582 96.4162 14.6187C96.8823 13.7793 97.5307 13.1241 98.3413 12.6327C99.1518 12.1413 100.043 11.8957 101.057 11.8957C101.827 11.8957 102.495 12.039 103.103 12.3256C103.691 12.6123 104.177 13.0217 104.522 13.5541L104.076 14.1274V8.026H106.953V22.7061H104.258V20.761L104.522 21.3548C104.157 21.8667 103.67 22.2557 103.063 22.5218C102.455 22.829 101.786 22.9518 101.057 22.9518ZM101.401 20.3516C101.928 20.3516 102.394 20.2287 102.779 19.983C103.184 19.7373 103.488 19.3893 103.711 18.9593C103.934 18.5293 104.055 18.0175 104.055 17.4442C104.055 16.8709 103.934 16.3795 103.711 15.9291C103.488 15.4991 103.184 15.1511 102.779 14.9054C102.374 14.6597 101.928 14.5368 101.401 14.5368C100.874 14.5368 100.408 14.6597 99.9826 14.9054C99.557 15.1511 99.2531 15.4991 99.0099 15.9291C98.787 16.3591 98.6655 16.8709 98.6655 17.4237C98.6655 17.997 98.787 18.4884 99.0099 18.9388C99.2328 19.3688 99.557 19.7169 99.9826 19.9625C100.408 20.2287 100.894 20.3516 101.401 20.3516Z" fill="#333333"></path><path d="M112.324 22.9517C111.574 22.9517 110.926 22.8289 110.358 22.5832C109.811 22.3375 109.386 21.9895 109.102 21.5185C108.798 21.0681 108.656 20.5153 108.656 19.8806C108.656 19.2868 108.798 18.7545 109.062 18.3041C109.325 17.8536 109.75 17.4646 110.298 17.1575C110.845 16.8504 111.554 16.6252 112.385 16.5023L115.586 15.97V18.0993L112.891 18.5907C112.486 18.6726 112.162 18.7955 111.959 18.9797C111.736 19.164 111.635 19.4302 111.635 19.7782C111.635 20.1058 111.757 20.3515 112 20.5358C112.243 20.72 112.547 20.8019 112.912 20.8019C113.378 20.8019 113.803 20.6996 114.168 20.4948C114.533 20.2901 114.796 20.0034 114.999 19.6554C115.201 19.3073 115.303 18.9183 115.303 18.4883V15.7448C115.303 15.3353 115.14 15.0077 114.837 14.7415C114.533 14.4754 114.107 14.332 113.56 14.332C113.053 14.332 112.587 14.4754 112.202 14.762C111.817 15.0486 111.534 15.4172 111.351 15.8881L109.041 14.7825C109.244 14.1887 109.568 13.6769 110.014 13.2469C110.46 12.8169 111.007 12.4894 111.635 12.2641C112.263 12.0389 112.952 11.9161 113.682 11.9161C114.573 11.9161 115.343 12.0799 116.032 12.4075C116.701 12.735 117.228 13.1855 117.613 13.7588C117.998 14.332 118.18 15.0077 118.18 15.7653V22.747H115.485V21.0272L116.133 20.9043C115.829 21.3752 115.485 21.7642 115.12 22.0509C114.755 22.358 114.33 22.5832 113.864 22.7265C113.398 22.8903 112.891 22.9517 112.324 22.9517Z" fill="#333333"></path><path d="M125.169 22.8495C123.912 22.8495 122.92 22.5014 122.231 21.8053C121.542 21.1091 121.177 20.1468 121.177 18.8979V14.6597H119.414V12.1414H119.515C120.062 12.1414 120.468 11.9981 120.751 11.7319C121.035 11.4657 121.177 11.0562 121.177 10.5034V9.7254H124.054V12.1209H126.506V14.6392H124.054V18.6932C124.054 19.0617 124.115 19.3483 124.237 19.594C124.358 19.8397 124.561 20.0035 124.824 20.1264C125.088 20.2492 125.432 20.3106 125.817 20.3106C125.898 20.3106 126 20.3106 126.121 20.2902C126.243 20.2697 126.364 20.2697 126.486 20.2492V22.7061C126.304 22.7266 126.081 22.7676 125.838 22.788C125.615 22.829 125.371 22.8495 125.169 22.8495Z" fill="#333333"></path><path d="M131.472 22.9517C130.723 22.9517 130.074 22.8289 129.507 22.5832C128.96 22.3375 128.534 21.9895 128.25 21.5185C127.947 21.0681 127.805 20.5153 127.805 19.8806C127.805 19.2868 127.947 18.7545 128.21 18.3041C128.473 17.8536 128.899 17.4646 129.446 17.1575C129.993 16.8504 130.702 16.6252 131.533 16.5023L134.735 15.97V18.0993L132.04 18.5907C131.634 18.6726 131.31 18.7955 131.108 18.9797C130.885 19.164 130.783 19.4302 130.783 19.7782C130.783 20.1058 130.905 20.3515 131.148 20.5358C131.391 20.72 131.695 20.8019 132.06 20.8019C132.526 20.8019 132.952 20.6996 133.316 20.4948C133.681 20.2901 133.944 20.0034 134.147 19.6554C134.35 19.3073 134.451 18.9183 134.451 18.4883V15.7448C134.451 15.3353 134.289 15.0077 133.985 14.7415C133.681 14.4754 133.256 14.332 132.708 14.332C132.202 14.332 131.736 14.4754 131.351 14.762C130.966 15.0486 130.682 15.4172 130.5 15.8881L128.19 14.7825C128.392 14.1887 128.717 13.6769 129.162 13.2469C129.608 12.8169 130.155 12.4894 130.783 12.2641C131.412 12.0389 132.101 11.9161 132.83 11.9161C133.722 11.9161 134.492 12.0799 135.181 12.4075C135.849 12.735 136.376 13.1855 136.761 13.7588C137.146 14.332 137.328 15.0077 137.328 15.7653V22.747H134.633V21.0272L135.282 20.9043C134.978 21.3752 134.633 21.7642 134.269 22.0509C133.904 22.358 133.478 22.5832 133.012 22.7265C132.546 22.8903 132.04 22.9517 131.472 22.9517Z" fill="#333333"></path></svg>